<svg xmlns="http://www.w3.org/2000/svg" xmlns:xlink="http://www.w3.org/1999/xlink" fill="none" version="1.1" width="192" height="38" viewBox="0 0 192 38"><defs><clipPath id="master_svg0_1_0"><rect x="0" y="0" width="192" height="38" rx="0"/></clipPath></defs><g style="mix-blend-mode:passthrough"><g style="mix-blend-mode:passthrough" clip-path="url(#master_svg0_1_0)"><rect x="0" y="0" width="192" height="38" rx="0" fill="#FFFFFF" fill-opacity="1"/><g style="mix-blend-mode:passthrough"><path d="M0,38L152,38C144.151,35.9809,137.499,30.7818,133.643,23.6531L131.127,19L126.97,9.16176C124.623,3.60882,119.181,0,113.153,0L15,0C6.71573,0,0,6.71573,0,15L0,38Z" fill="#007B86" fill-opacity="1"/></g><g style="opacity:0.30000001192092896;mix-blend-mode:passthrough"><path d="M15,38L167,38C159.151,35.9809,152.499,30.7818,148.643,23.6531L146.127,19L141.97,9.16176C139.623,3.60882,134.18099999999998,0,128.15300000000002,0L30,0C21.71573,0,15,6.71573,15,15L15,38Z" fill="#007B86" fill-opacity="1"/></g><g style="opacity:0.30000001192092896;mix-blend-mode:passthrough"><path d="M30,38L182,38C174.151,35.9809,167.499,30.7818,163.643,23.6531L161.127,19L156.97,9.16176C154.623,3.60882,149.18099999999998,0,143.15300000000002,0L45,0C36.71573,0,30,6.71573,30,15L30,38Z" fill="#007B86" fill-opacity="1"/></g></g></g></svg>